<?xml version="1.0" encoding="UTF-8"?>
<svg width="700pt" height="700pt" version="1.1" viewBox="0 0 700 700" xmlns="http://www.w3.org/2000/svg" xmlns:xlink="http://www.w3.org/1999/xlink">
  <path d="m616.66 46.668v167.02c0 18.41-14.922 33.332-33.332 33.332-18.41 0-33.332-14.922-33.332-33.332v-86.551l-409.76 409.77c-6.5078 6.5039-15.043 9.7578-23.57 9.7578-8.5273 0-17.062-3.2539-23.574-9.7656-13.02-13.016-13.02-34.125 0-47.141l409.76-409.76-86.543 0.003906c-18.41 0-33.332-14.922-33.332-33.332 0-18.41 14.922-33.332 33.332-33.332h167.02c18.41 0 33.332 14.922 33.332 33.332z"/>
</svg>
